<svg fill="#fff" height="512" viewBox="0 0 546.55 546.55" width="512" xmlns="http://www.w3.org/2000/svg"><path d="M508.613 206.929L467.74 70.687c-6.555-21.85-26.287-36.528-49.087-36.528H127.897c-22.801 0-42.533 14.678-49.087 36.528L37.937 206.929C16.154 212.829 0 232.569 0 256.195v153.717c0 18.831 15.328 34.159 34.159 34.159v17.08c0 28.255 22.984 51.239 51.239 51.239h34.159c28.255 0 51.239-22.984 51.239-51.239v-17.08h204.956v17.08c0 28.255 22.984 51.239 51.239 51.239h34.159c28.255 0 51.239-22.984 51.239-51.239v-17.08c18.831 0 34.159-15.328 34.159-34.159V256.195c.002-23.626-16.152-43.366-37.935-49.266zM111.534 80.495c2.185-7.289 8.757-12.176 16.362-12.176h290.755c7.606 0 14.177 4.887 16.362 12.176l37.339 124.461H74.194zm25.102 380.658c0 9.424-7.656 17.08-17.08 17.08H85.397c-9.424 0-17.08-7.656-17.08-17.08v-17.08h68.319zm341.594 0c0 9.424-7.656 17.08-17.08 17.08h-34.159c-9.424 0-17.08-7.656-17.08-17.08v-17.08h68.319zM34.158 409.914V256.197c0-9.424 7.656-17.08 17.08-17.08H495.31c9.424 0 17.08 7.656 17.08 17.08v153.717z"/><path d="M121.558 281.275c-28.255 0-51.239 22.984-51.239 51.239s22.984 51.239 51.239 51.239 51.239-22.984 51.239-51.239-22.984-51.239-51.239-51.239zm0 68.319c-9.424 0-17.08-7.656-17.08-17.08s7.656-17.08 17.08-17.08 17.08 7.656 17.08 17.08-7.656 17.08-17.08 17.08zM437.992 281.275c-28.255 0-51.239 22.984-51.239 51.239s22.984 51.239 51.239 51.239 51.239-22.984 51.239-51.239-22.984-51.239-51.239-51.239zm0 68.319c-9.424 0-17.08-7.656-17.08-17.08s7.656-17.08 17.08-17.08 17.08 7.656 17.08 17.08-7.656 17.08-17.08 17.08z"/></svg>