<svg xmlns="http://www.w3.org/2000/svg" fill="#fff" viewBox="0 0 510.92 510.92" width="512" height="512"><path d="M510.92 207.673L429.394 64.248H0v286.85h273v16.575c0 43.561 35.439 79 79 79s79-35.439 79-79v-19.401l79.92-140.599zM30 94.248h381.939l64.474 113.425L431 287.564v-15.892c0-23.165-10.28-45.036-27.524-59.903.117-1.352.19-2.716.19-4.097 0-25.916-21.084-47-47-47s-47 21.084-47 47 21.084 47 47 47c13.009 0 24.799-5.315 33.317-13.885 6.991 8.621 11.017 19.495 11.017 30.885v49.425H30V94.248zm343.666 113.425c0 9.374-7.626 17-17 17s-17-7.626-17-17c0-9.374 7.626-17 17-17s17 7.626 17 17zm-21.666 209c-27.019 0-49-21.981-49-49v-16.575h98v16.575c0 27.019-21.981 49-49 49z"/><path d="M150.124 174.333c0-24.4-15.742-38.372-36.601-38.372-20.858 0-36.6 13.971-36.6 38.372 0 24.597 15.742 38.372 36.6 38.372 20.858-.001 36.601-13.775 36.601-38.372zm-45.259 0c0-13.184 4.329-17.12 8.658-17.12s8.658 3.936 8.658 17.12c0 13.184-4.329 17.12-8.658 17.12s-8.658-3.936-8.658-17.12zM194.398 137.929l-94.059 137.744h33.255l94.06-137.744zM214.47 200.898c-20.858 0-36.601 13.971-36.601 38.372 0 24.597 15.742 38.372 36.601 38.372s36.601-13.774 36.601-38.372c-.001-24.401-15.743-38.372-36.601-38.372zm0 55.491c-4.329 0-8.658-3.936-8.658-17.12 0-13.184 4.329-17.12 8.658-17.12s8.658 3.936 8.658 17.12c0 13.184-4.329 17.12-8.658 17.12z"/></svg>